<svg width="126" height="44" viewBox="0 0 126 44" fill="none" xmlns="http://www.w3.org/2000/svg">
<rect y="1" width="126" height="43" rx="5" fill="white"/>
<path d="M62.936 20.06C62.72 19.644 62.42 19.332 62.036 19.124C61.652 18.908 61.208 18.8 60.704 18.8C60.152 18.8 59.66 18.924 59.228 19.172C58.796 19.42 58.456 19.772 58.208 20.228C57.968 20.684 57.848 21.212 57.848 21.812C57.848 22.412 57.968 22.944 58.208 23.408C58.456 23.864 58.796 24.216 59.228 24.464C59.66 24.712 60.152 24.836 60.704 24.836C61.448 24.836 62.052 24.628 62.516 24.212C62.98 23.796 63.264 23.232 63.368 22.52H60.236V21.428H64.832V22.496C64.744 23.144 64.512 23.74 64.136 24.284C63.768 24.828 63.284 25.264 62.684 25.592C62.092 25.912 61.432 26.072 60.704 26.072C59.92 26.072 59.204 25.892 58.556 25.532C57.908 25.164 57.392 24.656 57.008 24.008C56.632 23.36 56.444 22.628 56.444 21.812C56.444 20.996 56.632 20.264 57.008 19.616C57.392 18.968 57.908 18.464 58.556 18.104C59.212 17.736 59.928 17.552 60.704 17.552C61.592 17.552 62.38 17.772 63.068 18.212C63.764 18.644 64.268 19.26 64.58 20.06H62.936ZM69.0493 26.108C68.4253 26.108 67.8613 25.968 67.3573 25.688C66.8533 25.4 66.4573 25 66.1693 24.488C65.8813 23.968 65.7373 23.368 65.7373 22.688C65.7373 22.016 65.8853 21.42 66.1813 20.9C66.4773 20.38 66.8813 19.98 67.3933 19.7C67.9053 19.42 68.4773 19.28 69.1093 19.28C69.7413 19.28 70.3133 19.42 70.8253 19.7C71.3373 19.98 71.7413 20.38 72.0373 20.9C72.3333 21.42 72.4813 22.016 72.4813 22.688C72.4813 23.36 72.3293 23.956 72.0253 24.476C71.7213 24.996 71.3053 25.4 70.7773 25.688C70.2573 25.968 69.6813 26.108 69.0493 26.108ZM69.0493 24.92C69.4013 24.92 69.7293 24.836 70.0333 24.668C70.3453 24.5 70.5973 24.248 70.7893 23.912C70.9813 23.576 71.0773 23.168 71.0773 22.688C71.0773 22.208 70.9853 21.804 70.8013 21.476C70.6173 21.14 70.3733 20.888 70.0693 20.72C69.7653 20.552 69.4373 20.468 69.0853 20.468C68.7333 20.468 68.4053 20.552 68.1013 20.72C67.8053 20.888 67.5693 21.14 67.3933 21.476C67.2173 21.804 67.1293 22.208 67.1293 22.688C67.1293 23.4 67.3093 23.952 67.6693 24.344C68.0373 24.728 68.4973 24.92 69.0493 24.92ZM76.7016 26.108C76.0776 26.108 75.5136 25.968 75.0096 25.688C74.5056 25.4 74.1096 25 73.8216 24.488C73.5336 23.968 73.3896 23.368 73.3896 22.688C73.3896 22.016 73.5376 21.42 73.8336 20.9C74.1296 20.38 74.5336 19.98 75.0456 19.7C75.5576 19.42 76.1296 19.28 76.7616 19.28C77.3936 19.28 77.9656 19.42 78.4776 19.7C78.9896 19.98 79.3936 20.38 79.6896 20.9C79.9856 21.42 80.1336 22.016 80.1336 22.688C80.1336 23.36 79.9816 23.956 79.6776 24.476C79.3736 24.996 78.9576 25.4 78.4296 25.688C77.9096 25.968 77.3336 26.108 76.7016 26.108ZM76.7016 24.92C77.0536 24.92 77.3816 24.836 77.6856 24.668C77.9976 24.5 78.2496 24.248 78.4416 23.912C78.6336 23.576 78.7296 23.168 78.7296 22.688C78.7296 22.208 78.6376 21.804 78.4536 21.476C78.2696 21.14 78.0256 20.888 77.7216 20.72C77.4176 20.552 77.0896 20.468 76.7376 20.468C76.3856 20.468 76.0576 20.552 75.7536 20.72C75.4576 20.888 75.2216 21.14 75.0456 21.476C74.8696 21.804 74.7816 22.208 74.7816 22.688C74.7816 23.4 74.9616 23.952 75.3216 24.344C75.6896 24.728 76.1496 24.92 76.7016 24.92ZM84.1499 19.28C84.6619 19.28 85.1139 19.384 85.5059 19.592C85.9059 19.792 86.2179 20.044 86.4419 20.348V19.388H87.8219V26.108C87.8219 26.716 87.6939 27.256 87.4379 27.728C87.1819 28.208 86.8099 28.584 86.3219 28.856C85.8419 29.128 85.2659 29.264 84.5939 29.264C83.6979 29.264 82.9539 29.052 82.3619 28.628C81.7699 28.212 81.4339 27.644 81.3539 26.924H82.7099C82.8139 27.268 83.0339 27.544 83.3699 27.752C83.7139 27.968 84.1219 28.076 84.5939 28.076C85.1459 28.076 85.5899 27.908 85.9259 27.572C86.2699 27.236 86.4419 26.748 86.4419 26.108V25.004C86.2099 25.316 85.8939 25.58 85.4939 25.796C85.1019 26.004 84.6539 26.108 84.1499 26.108C83.5739 26.108 83.0459 25.964 82.5659 25.676C82.0939 25.38 81.7179 24.972 81.4379 24.452C81.1659 23.924 81.0299 23.328 81.0299 22.664C81.0299 22 81.1659 21.412 81.4379 20.9C81.7179 20.388 82.0939 19.992 82.5659 19.712C83.0459 19.424 83.5739 19.28 84.1499 19.28ZM86.4419 22.688C86.4419 22.232 86.3459 21.836 86.1539 21.5C85.9699 21.164 85.7259 20.908 85.4219 20.732C85.1179 20.556 84.7899 20.468 84.4379 20.468C84.0859 20.468 83.7579 20.556 83.4539 20.732C83.1499 20.9 82.9019 21.152 82.7099 21.488C82.5259 21.816 82.4339 22.208 82.4339 22.664C82.4339 23.12 82.5259 23.52 82.7099 23.864C82.9019 24.208 83.1499 24.472 83.4539 24.656C83.7659 24.832 84.0939 24.92 84.4379 24.92C84.7899 24.92 85.1179 24.832 85.4219 24.656C85.7259 24.48 85.9699 24.224 86.1539 23.888C86.3459 23.544 86.4419 23.144 86.4419 22.688ZM90.9868 17.12V26H89.6188V17.12H90.9868ZM98.8428 22.532C98.8428 22.78 98.8268 23.004 98.7948 23.204H93.7428C93.7828 23.732 93.9788 24.156 94.3308 24.476C94.6828 24.796 95.1148 24.956 95.6268 24.956C96.3628 24.956 96.8828 24.648 97.1868 24.032H98.6628C98.4628 24.64 98.0988 25.14 97.5708 25.532C97.0508 25.916 96.4028 26.108 95.6268 26.108C94.9948 26.108 94.4268 25.968 93.9228 25.688C93.4268 25.4 93.0348 25 92.7468 24.488C92.4668 23.968 92.3268 23.368 92.3268 22.688C92.3268 22.008 92.4628 21.412 92.7348 20.9C93.0148 20.38 93.4028 19.98 93.8988 19.7C94.4028 19.42 94.9788 19.28 95.6268 19.28C96.2508 19.28 96.8068 19.416 97.2948 19.688C97.7828 19.96 98.1628 20.344 98.4348 20.84C98.7068 21.328 98.8428 21.892 98.8428 22.532ZM97.4148 22.1C97.4068 21.596 97.2268 21.192 96.8748 20.888C96.5228 20.584 96.0868 20.432 95.5668 20.432C95.0948 20.432 94.6908 20.584 94.3548 20.888C94.0188 21.184 93.8188 21.588 93.7548 22.1H97.4148Z" fill="black"/>
<g clip-path="url(#clip0_144_314)">
<path d="M47.1696 20.0873L38.196 20.0869C37.7997 20.0869 37.4785 20.4081 37.4785 20.8043V23.671C37.4785 24.0672 37.7997 24.3884 38.1959 24.3884H43.2493C42.696 25.8244 41.6632 27.0271 40.3455 27.7913L42.5002 31.5213C45.9567 29.5223 48.0002 26.0148 48.0002 22.0884C48.0002 21.5293 47.959 21.1297 47.8766 20.6797C47.814 20.3378 47.5171 20.0873 47.1696 20.0873Z" fill="#167EE6"/>
<path d="M37.0004 28.6956C34.5274 28.6956 32.3685 27.3444 31.2089 25.345L27.479 27.4949C29.3771 30.7846 32.933 33 37.0004 33C38.9957 33 40.8785 32.4627 42.5004 31.5265V31.5214L40.3457 27.7913C39.36 28.3629 38.2195 28.6956 37.0004 28.6956Z" fill="#12B347"/>
<path d="M42.5 31.5265V31.5214L40.3452 27.7913C39.3596 28.3629 38.2192 28.6956 37 28.6956V33C38.9953 33 40.8782 32.4627 42.5 31.5265Z" fill="#0F993E"/>
<path d="M30.3044 22C30.3044 20.781 30.637 19.6406 31.2085 18.655L27.4786 16.5051C26.5372 18.1219 26 19.9996 26 22C26 24.0005 26.5372 25.8781 27.4786 27.4949L31.2085 25.345C30.637 24.3594 30.3044 23.219 30.3044 22Z" fill="#FFD500"/>
<path d="M37.0004 15.3044C38.6131 15.3044 40.0944 15.8774 41.2514 16.8306C41.5368 17.0657 41.9517 17.0487 42.2132 16.7872L44.2443 14.7561C44.5409 14.4595 44.5198 13.9739 44.2029 13.699C42.2644 12.0172 39.7421 11 37.0004 11C32.933 11 29.3771 13.2153 27.479 16.5051L31.2089 18.655C32.3685 16.6555 34.5274 15.3044 37.0004 15.3044Z" fill="#FF4B26"/>
<path d="M41.251 16.8306C41.5364 17.0657 41.9513 17.0487 42.2128 16.7872L44.2439 14.7561C44.5405 14.4595 44.5194 13.9739 44.2025 13.699C42.264 12.0172 39.7417 11 37 11V15.3044C38.6126 15.3044 40.094 15.8774 41.251 16.8306Z" fill="#D93F21"/>
</g>
<defs>
<clipPath id="clip0_144_314">
<rect width="22" height="22" fill="white" transform="translate(26 11)"/>
</clipPath>
</defs>
</svg>
