<svg width="126" height="44" viewBox="0 0 126 44" fill="none" xmlns="http://www.w3.org/2000/svg">
<rect width="126" height="43" rx="5" fill="white"/>
<path d="M30 8C37.1801 8 43 13.8207 43 21C43 28.1801 37.1801 34 30 34C22.8199 34 17 28.1801 17 21C17 13.8207 22.8199 8 30 8Z" fill="#0052FF"/>
<path d="M31.5827 16.9497H33.2581V14.4749H31.2886V14.4838C28.9023 14.5683 28.4132 15.9097 28.3701 17.3186H28.3652V18.5544H26.7402V20.9781H28.3652V27.4748H30.8141V20.9781H32.8202L33.2077 18.5544H30.8149V17.8078C30.8149 17.3316 31.1317 16.9497 31.5827 16.9497Z" fill="white"/>
<path d="M56.808 17.66V18.776H53.268V21.236H56.028V22.352H53.268V26H51.9V17.66H56.808ZM57.6198 22.664C57.6198 22 57.7558 21.412 58.0278 20.9C58.3078 20.388 58.6838 19.992 59.1558 19.712C59.6358 19.424 60.1638 19.28 60.7398 19.28C61.2598 19.28 61.7118 19.384 62.0958 19.592C62.4878 19.792 62.7998 20.044 63.0318 20.348V19.388H64.4118V26H63.0318V25.016C62.7998 25.328 62.4838 25.588 62.0838 25.796C61.6838 26.004 61.2278 26.108 60.7158 26.108C60.1478 26.108 59.6278 25.964 59.1558 25.676C58.6838 25.38 58.3078 24.972 58.0278 24.452C57.7558 23.924 57.6198 23.328 57.6198 22.664ZM63.0318 22.688C63.0318 22.232 62.9358 21.836 62.7438 21.5C62.5598 21.164 62.3158 20.908 62.0118 20.732C61.7078 20.556 61.3798 20.468 61.0278 20.468C60.6758 20.468 60.3478 20.556 60.0438 20.732C59.7398 20.9 59.4918 21.152 59.2998 21.488C59.1158 21.816 59.0238 22.208 59.0238 22.664C59.0238 23.12 59.1158 23.52 59.2998 23.864C59.4918 24.208 59.7398 24.472 60.0438 24.656C60.3558 24.832 60.6838 24.92 61.0278 24.92C61.3798 24.92 61.7078 24.832 62.0118 24.656C62.3158 24.48 62.5598 24.224 62.7438 23.888C62.9358 23.544 63.0318 23.144 63.0318 22.688ZM65.7526 22.688C65.7526 22.008 65.8886 21.412 66.1606 20.9C66.4406 20.38 66.8246 19.98 67.3126 19.7C67.8006 19.42 68.3606 19.28 68.9926 19.28C69.7926 19.28 70.4526 19.472 70.9726 19.856C71.5006 20.232 71.8566 20.772 72.0406 21.476H70.5646C70.4446 21.148 70.2526 20.892 69.9886 20.708C69.7246 20.524 69.3926 20.432 68.9926 20.432C68.4326 20.432 67.9846 20.632 67.6486 21.032C67.3206 21.424 67.1566 21.976 67.1566 22.688C67.1566 23.4 67.3206 23.956 67.6486 24.356C67.9846 24.756 68.4326 24.956 68.9926 24.956C69.7846 24.956 70.3086 24.608 70.5646 23.912H72.0406C71.8486 24.584 71.4886 25.12 70.9606 25.52C70.4326 25.912 69.7766 26.108 68.9926 26.108C68.3606 26.108 67.8006 25.968 67.3126 25.688C66.8246 25.4 66.4406 25 66.1606 24.488C65.8886 23.968 65.7526 23.368 65.7526 22.688ZM79.4639 22.532C79.4639 22.78 79.4479 23.004 79.4159 23.204H74.3639C74.4039 23.732 74.5999 24.156 74.9519 24.476C75.3039 24.796 75.7359 24.956 76.2479 24.956C76.9839 24.956 77.5039 24.648 77.8079 24.032H79.2839C79.0839 24.64 78.7199 25.14 78.1919 25.532C77.6719 25.916 77.0239 26.108 76.2479 26.108C75.6159 26.108 75.0479 25.968 74.5439 25.688C74.0479 25.4 73.6559 25 73.3679 24.488C73.0879 23.968 72.9479 23.368 72.9479 22.688C72.9479 22.008 73.0839 21.412 73.3559 20.9C73.6359 20.38 74.0239 19.98 74.5199 19.7C75.0239 19.42 75.5999 19.28 76.2479 19.28C76.8719 19.28 77.4279 19.416 77.9159 19.688C78.4039 19.96 78.7839 20.344 79.0559 20.84C79.3279 21.328 79.4639 21.892 79.4639 22.532ZM78.0359 22.1C78.0279 21.596 77.8479 21.192 77.4959 20.888C77.1439 20.584 76.7079 20.432 76.1879 20.432C75.7159 20.432 75.3119 20.584 74.9759 20.888C74.6399 21.184 74.4399 21.588 74.3759 22.1H78.0359ZM82.1782 20.372C82.4102 20.052 82.7262 19.792 83.1262 19.592C83.5342 19.384 83.9862 19.28 84.4822 19.28C85.0662 19.28 85.5942 19.42 86.0662 19.7C86.5382 19.98 86.9102 20.38 87.1822 20.9C87.4542 21.412 87.5902 22 87.5902 22.664C87.5902 23.328 87.4542 23.924 87.1822 24.452C86.9102 24.972 86.5342 25.38 86.0542 25.676C85.5822 25.964 85.0582 26.108 84.4822 26.108C83.9702 26.108 83.5142 26.008 83.1142 25.808C82.7222 25.608 82.4102 25.352 82.1782 25.04V26H80.8102V17.12H82.1782V20.372ZM86.1982 22.664C86.1982 22.208 86.1022 21.816 85.9102 21.488C85.7262 21.152 85.4782 20.9 85.1662 20.732C84.8622 20.556 84.5342 20.468 84.1822 20.468C83.8382 20.468 83.5102 20.556 83.1982 20.732C82.8942 20.908 82.6462 21.164 82.4542 21.5C82.2702 21.836 82.1782 22.232 82.1782 22.688C82.1782 23.144 82.2702 23.544 82.4542 23.888C82.6462 24.224 82.8942 24.48 83.1982 24.656C83.5102 24.832 83.8382 24.92 84.1822 24.92C84.5342 24.92 84.8622 24.832 85.1662 24.656C85.4782 24.472 85.7262 24.208 85.9102 23.864C86.1022 23.52 86.1982 23.12 86.1982 22.664ZM91.811 26.108C91.187 26.108 90.623 25.968 90.119 25.688C89.615 25.4 89.219 25 88.931 24.488C88.643 23.968 88.499 23.368 88.499 22.688C88.499 22.016 88.647 21.42 88.943 20.9C89.239 20.38 89.643 19.98 90.155 19.7C90.667 19.42 91.239 19.28 91.871 19.28C92.503 19.28 93.075 19.42 93.587 19.7C94.099 19.98 94.503 20.38 94.799 20.9C95.095 21.42 95.243 22.016 95.243 22.688C95.243 23.36 95.091 23.956 94.787 24.476C94.483 24.996 94.067 25.4 93.539 25.688C93.019 25.968 92.443 26.108 91.811 26.108ZM91.811 24.92C92.163 24.92 92.491 24.836 92.795 24.668C93.107 24.5 93.359 24.248 93.551 23.912C93.743 23.576 93.839 23.168 93.839 22.688C93.839 22.208 93.747 21.804 93.563 21.476C93.379 21.14 93.135 20.888 92.831 20.72C92.527 20.552 92.199 20.468 91.847 20.468C91.495 20.468 91.167 20.552 90.863 20.72C90.567 20.888 90.331 21.14 90.155 21.476C89.979 21.804 89.891 22.208 89.891 22.688C89.891 23.4 90.071 23.952 90.431 24.344C90.799 24.728 91.259 24.92 91.811 24.92ZM99.4633 26.108C98.8393 26.108 98.2753 25.968 97.7713 25.688C97.2673 25.4 96.8713 25 96.5833 24.488C96.2953 23.968 96.1513 23.368 96.1513 22.688C96.1513 22.016 96.2993 21.42 96.5953 20.9C96.8913 20.38 97.2953 19.98 97.8073 19.7C98.3193 19.42 98.8913 19.28 99.5233 19.28C100.155 19.28 100.727 19.42 101.239 19.7C101.751 19.98 102.155 20.38 102.451 20.9C102.747 21.42 102.895 22.016 102.895 22.688C102.895 23.36 102.743 23.956 102.439 24.476C102.135 24.996 101.719 25.4 101.191 25.688C100.671 25.968 100.095 26.108 99.4633 26.108ZM99.4633 24.92C99.8153 24.92 100.143 24.836 100.447 24.668C100.759 24.5 101.011 24.248 101.203 23.912C101.395 23.576 101.491 23.168 101.491 22.688C101.491 22.208 101.399 21.804 101.215 21.476C101.031 21.14 100.787 20.888 100.483 20.72C100.179 20.552 99.8513 20.468 99.4993 20.468C99.1473 20.468 98.8193 20.552 98.5153 20.72C98.2193 20.888 97.9833 21.14 97.8073 21.476C97.6313 21.804 97.5433 22.208 97.5433 22.688C97.5433 23.4 97.7233 23.952 98.0833 24.344C98.4513 24.728 98.9113 24.92 99.4633 24.92ZM106.864 22.7L109.912 26H108.064L105.616 23.156V26H104.248V17.12H105.616V22.28L108.016 19.388H109.912L106.864 22.7Z" fill="black"/>
</svg>
